<svg width="432" height="537" viewBox="0 0 432 537" fill="none" xmlns="http://www.w3.org/2000/svg">
<g filter="url(#filter0_d_56_149)">
<path d="M64.0659 50.5988C28.2819 84.6778 3.99991 125.187 3.99991 165.696C3.99991 205.562 28.9209 244.785 35.9499 285.937C43.6179 326.446 34.0329 368.884 43.6179 413.894C52.5639 458.904 80.6799 506.486 120.298 521.918C160.555 537.993 212.314 521.918 262.795 505.843C313.915 489.768 364.396 473.693 382.927 437.685C402.097 401.677 389.317 346.379 398.902 292.367C408.487 238.998 439.798 187.558 421.267 164.41C402.736 140.619 334.363 145.763 287.716 116.185C241.708 86.6068 217.426 22.9498 181.642 5.58876C146.497 -12.4152 99.2109 15.8768 64.0659 50.5988Z" fill="url(#paint0_linear_56_149)"/>
<path d="M64.0659 50.5988C28.2819 84.6778 3.99991 125.187 3.99991 165.696C3.99991 205.562 28.9209 244.785 35.9499 285.937C43.6179 326.446 34.0329 368.884 43.6179 413.894C52.5639 458.904 80.6799 506.486 120.298 521.918C160.555 537.993 212.314 521.918 262.795 505.843C313.915 489.768 364.396 473.693 382.927 437.685C402.097 401.677 389.317 346.379 398.902 292.367C408.487 238.998 439.798 187.558 421.267 164.41C402.736 140.619 334.363 145.763 287.716 116.185C241.708 86.6068 217.426 22.9498 181.642 5.58876C146.497 -12.4152 99.2109 15.8768 64.0659 50.5988Z" stroke="url(#paint1_linear_56_149)"/>
</g>
<defs>
<filter id="filter0_d_56_149" x="0" y="0" width="431.022" height="536.576" filterUnits="userSpaceOnUse" color-interpolation-filters="sRGB">
<feFlood flood-opacity="0" result="BackgroundImageFix"/>
<feColorMatrix in="SourceAlpha" type="matrix" values="0 0 0 0 0 0 0 0 0 0 0 0 0 0 0 0 0 0 127 0" result="hardAlpha"/>
<feOffset dy="4"/>
<feGaussianBlur stdDeviation="2"/>
<feComposite in2="hardAlpha" operator="out"/>
<feColorMatrix type="matrix" values="0 0 0 0 0 0 0 0 0 0 0 0 0 0 0 0 0 0 0.25 0"/>
<feBlend mode="normal" in2="BackgroundImageFix" result="effect1_dropShadow_56_149"/>
<feBlend mode="normal" in="SourceGraphic" in2="effect1_dropShadow_56_149" result="shape"/>
</filter>
<linearGradient id="paint0_linear_56_149" x1="427.022" y1="528.576" x2="-88.7049" y2="115.837" gradientUnits="userSpaceOnUse">
<stop stop-color="#003C60"/>
<stop offset="1" stop-color="#00121D"/>
</linearGradient>
<linearGradient id="paint1_linear_56_149" x1="427.022" y1="528.576" x2="-88.7049" y2="115.837" gradientUnits="userSpaceOnUse">
<stop stop-color="#003C60"/>
<stop offset="1" stop-color="#00121D"/>
</linearGradient>
</defs>
</svg>
